<?xml version="1.0" standalone="no"?>
<!DOCTYPE svg PUBLIC "-//W3C//DTD SVG 20010904//EN"
 "http://www.w3.org/TR/2001/REC-SVG-20010904/DTD/svg10.dtd">
<svg version="1.0" xmlns="http://www.w3.org/2000/svg"
 width="300.000000pt" height="300.000000pt" viewBox="0 0 300.000000 300.000000"
 preserveAspectRatio="xMidYMid meet">
<metadata>
Created by potrace 1.11, written by Peter Selinger 2001-2013
</metadata>
<g transform="translate(0.000000,300.000000) scale(0.100000,-0.100000)"
fill="#000000" stroke="none">
<path d="M1351 2359 c-95 -239 -170 -440 -168 -449 2 -8 99 -251 215 -540 219
-547 258 -656 268 -743 7 -63 -15 -166 -53 -243 -33 -69 -135 -166 -195 -187
-39 -14 17 -15 667 -16 700 0 710 0 675 19 -113 60 -260 227 -338 383 -51 103
-212 496 -588 1440 -162 407 -298 746 -302 754 -6 10 -63 -122 -181 -418z"/>
<path d="M670 665 c-67 -176 -228 -378 -365 -456 l-50 -29 360 1 360 0 -55 21
c-142 55 -251 251 -238 431 2 31 3 57 1 57 -2 0 -8 -11 -13 -25z"/>
</g>
</svg>
