<svg xmlns="http://www.w3.org/2000/svg" viewBox="0 0 96 96"><defs><style>.cls-1{isolation:isolate;}.cls-2{mix-blend-mode:multiply;}</style></defs><title>Artboard 3</title><g class="cls-1"><g id="Layer_1" data-name="Layer 1"><path d="M95.75,88H48.09l0-.15c.64-.22,1.28-.42,1.91-.66a12.86,12.86,0,0,0,7.17-16.41c-1.7-4.47-3.64-8.86-5.54-13.25Q46.87,46.59,42,35.71a2.31,2.31,0,0,1,0-2Q47.45,21.29,52.84,8.9c.11-.26.28-.49.51-.9.22.44.37.72.5,1C58.74,20.14,63.6,31.3,68.53,42.42c4.6,10.39,9.19,20.78,13.94,31.11a28.93,28.93,0,0,0,13,14,3.59,3.59,0,0,1,.36.24Z"/><path d="M25.13,72c-.78,7.82,2.07,13.34,9.76,16h-24C17.61,84.41,22.07,78.81,25.13,72Z"/><g class="cls-2"><path d="M11.74,55.28H9.27l-.5,1.82H6.91l2.51-8.68h2.19l2.47,8.68H12.2Zm-2-1.59h1.63l-.79-3.08Z"/><path d="M17.88,53.67H16.7V57.1H14.84V48.42h3.48a3.63,3.63,0,0,1,1.16.18,2.42,2.42,0,0,1,.89.51,2.3,2.3,0,0,1,.57.85,3.13,3.13,0,0,1,.2,1.17,2.31,2.31,0,0,1-.39,1.34,2.2,2.2,0,0,1-1.11.82l1.88,3.82H19.46ZM18,50H16.7v2.08h1.11a4.93,4.93,0,0,0,.54,0,1.42,1.42,0,0,0,.48-.13.84.84,0,0,0,.34-.3,1,1,0,0,0,.13-.53,1.36,1.36,0,0,0-.08-.5.8.8,0,0,0-.23-.33A1.48,1.48,0,0,0,18,50Z"/><path d="M22.85,48.42H24.7V57.1H22.85Z"/><path d="M29.27,57.22a3.73,3.73,0,0,1-1.84-.5,2.9,2.9,0,0,1-.83-.66A3.88,3.88,0,0,1,26,55l1.55-.68a4.35,4.35,0,0,0,.3.55,1.88,1.88,0,0,0,.37.43,1.59,1.59,0,0,0,.48.27,1.82,1.82,0,0,0,.62.1,2.42,2.42,0,0,0,.48,0,1.25,1.25,0,0,0,.41-.16.79.79,0,0,0,.29-.3,1,1,0,0,0,.11-.48.85.85,0,0,0-.44-.72A5.74,5.74,0,0,0,29,53.4a7.32,7.32,0,0,1-2-1.06,2,2,0,0,1-.7-1.64A2.13,2.13,0,0,1,27.08,49a3.09,3.09,0,0,1,2-.68,3.45,3.45,0,0,1,1.84.5,2.78,2.78,0,0,1,.72.63,4.11,4.11,0,0,1,.57,1l-1.71.52a2.4,2.4,0,0,0-.53-.81,1.25,1.25,0,0,0-.9-.31,1.81,1.81,0,0,0-.38,0,1.25,1.25,0,0,0-.35.13.68.68,0,0,0-.36.62.6.6,0,0,0,.11.34,1.1,1.1,0,0,0,.38.32,7.92,7.92,0,0,0,1.26.56,6.05,6.05,0,0,1,1.77.94,2.11,2.11,0,0,1,.83,1.8,2.46,2.46,0,0,1-.82,2A3.49,3.49,0,0,1,29.27,57.22Z"/><path d="M38.5,53.48H35.56V57.1H33.71V48.42h1.86v3.35h3V48.42h1.86V57.1H38.5Z"/></g><g class="cls-2"><path d="M3.51,68.93a3.73,3.73,0,0,1-1.84-.5,2.9,2.9,0,0,1-.83-.66,3.88,3.88,0,0,1-.62-1l1.55-.68a4.35,4.35,0,0,0,.3.55,1.88,1.88,0,0,0,.37.43,1.59,1.59,0,0,0,.48.27,1.82,1.82,0,0,0,.62.1,2.42,2.42,0,0,0,.48,0,1.25,1.25,0,0,0,.41-.16.79.79,0,0,0,.29-.3,1,1,0,0,0,.11-.48.85.85,0,0,0-.44-.72,5.74,5.74,0,0,0-1.18-.58,7.32,7.32,0,0,1-2-1.06,2,2,0,0,1-.7-1.64,2.13,2.13,0,0,1,.82-1.72,3.09,3.09,0,0,1,2-.68,3.45,3.45,0,0,1,1.84.5,2.77,2.77,0,0,1,.72.63,4.11,4.11,0,0,1,.57,1l-1.71.52a2.4,2.4,0,0,0-.53-.81,1.25,1.25,0,0,0-.9-.31,1.81,1.81,0,0,0-.38,0,1.25,1.25,0,0,0-.35.13.68.68,0,0,0-.36.62.6.6,0,0,0,.11.34,1.1,1.1,0,0,0,.38.32A7.92,7.92,0,0,0,4,63.54a6.05,6.05,0,0,1,1.77.94,2.11,2.11,0,0,1,.83,1.8,2.46,2.46,0,0,1-.82,2A3.49,3.49,0,0,1,3.51,68.93Z"/><path d="M11.26,68.81H9.4V61.72H7.21V60.13h6.25v1.59H11.26Z"/><path d="M17.79,68.93a3.41,3.41,0,0,1-2.48-.86,3.29,3.29,0,0,1-.88-2.47V60.13h1.86V65.5a2.28,2.28,0,0,0,.34,1.43,1.34,1.34,0,0,0,1.14.42,2.13,2.13,0,0,0,.73-.11,1,1,0,0,0,.45-.3,2.26,2.26,0,0,0,.34-1.42V60.13h1.86v5.39a3.46,3.46,0,0,1-.86,2.53A3.34,3.34,0,0,1,17.79,68.93Z"/><path d="M25.28,68.81H22.42V60.13h2.84a4.67,4.67,0,0,1,1.79.31,3.2,3.2,0,0,1,1.24.88A3.64,3.64,0,0,1,29,62.69a6.4,6.4,0,0,1,.23,1.79A6.31,6.31,0,0,1,29,66.32a3.42,3.42,0,0,1-.77,1.36A3.74,3.74,0,0,1,25.28,68.81Zm0-7.09h-1v5.51h1A2.27,2.27,0,0,0,26.3,67a1.67,1.67,0,0,0,.66-.6,2.51,2.51,0,0,0,.33-.88,5.78,5.78,0,0,0,.09-1.07,4.78,4.78,0,0,0-.13-1.21,2.42,2.42,0,0,0-.39-.85A1.87,1.87,0,0,0,25.26,61.72Z"/><path d="M30.43,60.13h1.85v8.68H30.43Z"/><path d="M37.2,68.93a3.74,3.74,0,0,1-1.71-.36,3.08,3.08,0,0,1-1.14-1,4,4,0,0,1-.63-1.42,7.69,7.69,0,0,1,0-3.42,4,4,0,0,1,.63-1.42,3.11,3.11,0,0,1,1.14-1,4.29,4.29,0,0,1,3.42,0,3.13,3.13,0,0,1,1.13,1,4,4,0,0,1,.63,1.42,7.4,7.4,0,0,1,.19,1.71,5.08,5.08,0,0,1-.93,3.27A3.27,3.27,0,0,1,37.2,68.93Zm0-7.33a1.47,1.47,0,0,0-1.37.71,5.49,5.49,0,0,0,0,4.33,1.67,1.67,0,0,0,2.73,0,5.48,5.48,0,0,0,0-4.33A1.46,1.46,0,0,0,37.2,61.6Z"/><path d="M44.64,68.93a3.73,3.73,0,0,1-1.84-.5,2.9,2.9,0,0,1-.83-.66,3.88,3.88,0,0,1-.62-1l1.55-.68a4.35,4.35,0,0,0,.3.55,1.88,1.88,0,0,0,.37.43,1.59,1.59,0,0,0,.48.27,1.82,1.82,0,0,0,.62.1,2.42,2.42,0,0,0,.48,0,1.25,1.25,0,0,0,.41-.16.79.79,0,0,0,.29-.3,1,1,0,0,0,.11-.48.85.85,0,0,0-.44-.72,5.74,5.74,0,0,0-1.18-.58,7.32,7.32,0,0,1-2-1.06,2,2,0,0,1-.7-1.64,2.13,2.13,0,0,1,.82-1.72,3.09,3.09,0,0,1,2-.68,3.45,3.45,0,0,1,1.84.5,2.77,2.77,0,0,1,.72.63,4.11,4.11,0,0,1,.57,1l-1.71.52a2.4,2.4,0,0,0-.53-.81,1.25,1.25,0,0,0-.9-.31,1.81,1.81,0,0,0-.38,0,1.25,1.25,0,0,0-.35.13.68.68,0,0,0-.36.62.6.6,0,0,0,.11.34,1.1,1.1,0,0,0,.38.32,7.92,7.92,0,0,0,1.26.56,6.05,6.05,0,0,1,1.77.94,2.11,2.11,0,0,1,.83,1.8,2.46,2.46,0,0,1-.82,2A3.49,3.49,0,0,1,44.64,68.93Z"/></g></g></g></svg>