<svg id="Layer_1" data-name="Layer 1" xmlns="http://www.w3.org/2000/svg" viewBox="0 0 93.95 80"><title>logo</title><g id="Layer_1-2" data-name="Layer 1"><path d="M95.75,88H48.09v-.15c.64-.22,1.28-.42,1.91-.66a12.86,12.86,0,0,0,7.17-16.41c-1.7-4.47-3.64-8.86-5.54-13.25Q46.87,46.59,42,35.71a2.31,2.31,0,0,1,0-2Q47.45,21.29,52.84,8.9c.11-.26.28-.49.51-.9.22.44.37.72.5,1,4.89,11.14,9.75,22.3,14.68,33.42,4.6,10.39,9.19,20.78,13.94,31.11a28.93,28.93,0,0,0,13,14,3.59,3.59,0,0,1,.36.24Z" transform="translate(-1.88 -8)"/><path d="M25.13,72c-.78,7.82,2.07,13.34,9.76,16h-24C17.61,84.41,22.07,78.81,25.13,72Z" transform="translate(-1.88 -8)"/></g><path d="M12.36,55.38v-.16a1.93,1.93,0,0,0,.91-.25,1.86,1.86,0,0,0,.48-.42,2.32,2.32,0,0,0,.38-.63q1-2.4,3.15-7.84h.19q.76,1.9,1.89,4.82t1.34,3.42a1.67,1.67,0,0,0,.21.39,1.15,1.15,0,0,0,.34.29,1.74,1.74,0,0,0,.84.22v.16H18.21v-.16a4.39,4.39,0,0,0,.95-.15q.46-.13.46-.35a.86.86,0,0,0-.05-.33L18.62,52H15.24q-.5,1.24-.63,1.71a3.26,3.26,0,0,0-.16.75.41.41,0,0,0,.16.31A1.18,1.18,0,0,0,15,55a3.87,3.87,0,0,0,.51.13,4,4,0,0,0,.5.06v.16Zm3-3.63h3.17l-1.58-4Z" transform="translate(-1.88 -8)"/><path d="M22.14,49.54v-.13L24,49.26l.09.09v.93h0a3,3,0,0,1,.9-.82,1.88,1.88,0,0,1,.91-.27.75.75,0,0,1,.5.2.6.6,0,0,1,.23.47.8.8,0,0,1-.17.52.55.55,0,0,1-.46.21.66.66,0,0,1-.44-.14.53.53,0,0,1-.16-.43,1,1,0,0,1,.1-.38,1.33,1.33,0,0,0-.86.31,2.44,2.44,0,0,0-.58.65v3.85a.58.58,0,0,0,.37.62,2.7,2.7,0,0,0,.86.14v.16H22.2v-.16a2.72,2.72,0,0,0,.59-.08.56.56,0,0,0,.37-.62V50.46a.81.81,0,0,0-.29-.65A1.21,1.21,0,0,0,22.14,49.54Z" transform="translate(-1.88 -8)"/><path d="M26.91,49.51v-.1l2-.15.09.09v5.12a.64.64,0,0,0,.37.63,2.49,2.49,0,0,0,.59.15v.13H27.11v-.13a2.2,2.2,0,0,0,.59-.08q.36-.11.36-.62V50.43a.79.79,0,0,0-.37-.67,1.73,1.73,0,0,0-.37-.17A1.49,1.49,0,0,0,26.91,49.51Zm.82-2.92a.73.73,0,0,1,.2-.5.63.63,0,0,1,.48-.22.72.72,0,0,1,.51.19.6.6,0,0,1,.2.45.77.77,0,0,1-.21.54.68.68,0,0,1-1.19-.45Z" transform="translate(-1.88 -8)"/><path d="M30.7,53.42h.16a2.8,2.8,0,0,0,.72,1.38,1.71,1.71,0,0,0,1.26.53A1.56,1.56,0,0,0,34,55a1.25,1.25,0,0,0,.36-.94.87.87,0,0,0-.36-.76,4.71,4.71,0,0,0-1.26-.53,5.61,5.61,0,0,1-.75-.28,2.9,2.9,0,0,1-.57-.36,1.33,1.33,0,0,1-.4-.52,1.83,1.83,0,0,1-.13-.72,1.61,1.61,0,0,1,.5-1.22,1.88,1.88,0,0,1,1.35-.48,2.45,2.45,0,0,1,1.39.4l.26-.41h.14l.1,1.78h-.16a2.15,2.15,0,0,0-.65-1.12,1.64,1.64,0,0,0-1.15-.45,1.24,1.24,0,0,0-.9.3,1,1,0,0,0-.31.79,1.12,1.12,0,0,0,.07.4,1,1,0,0,0,.16.28,1,1,0,0,0,.32.22l.41.18.57.19.1,0a3.51,3.51,0,0,1,1.37.73,1.62,1.62,0,0,1,.46,1.22A1.67,1.67,0,0,1,34.29,55a2.24,2.24,0,0,1-1.5.51A2.84,2.84,0,0,1,31.16,55l-.26.41h-.14Z" transform="translate(-1.88 -8)"/><path d="M35.42,45.68v-.16l2.09-.14.09.1v4.78h0a7.63,7.63,0,0,1,.7-.63,2.48,2.48,0,0,1,1.5-.47,1.6,1.6,0,0,1,1.34.56,2.47,2.47,0,0,1,.44,1.55v3.19q0,.69,1,.75v.16h-3v-.16a3.37,3.37,0,0,0,.68-.08.56.56,0,0,0,.42-.62V51.09A1.52,1.52,0,0,0,40.3,50a1.14,1.14,0,0,0-.86-.4,2.25,2.25,0,0,0-.7.11,1.87,1.87,0,0,0-.55.27,2.78,2.78,0,0,0-.36.31,1.37,1.37,0,0,0-.21.29v3.85q0,.71,1.07.76v.16h-3v-.16a2.73,2.73,0,0,0,.59-.08q.37-.11.37-.62V46.66a1,1,0,0,0-.1-.46.85.85,0,0,0-.26-.32,1.24,1.24,0,0,0-.39-.13A3.48,3.48,0,0,0,35.42,45.68Z" transform="translate(-1.88 -8)"/><path d="M1.88,64.46h.19a5.71,5.71,0,0,0,1.22,2.1,2.45,2.45,0,0,0,1.8.7,1.83,1.83,0,0,0,1.38-.49,2,2,0,0,0,.15-2.4,2.16,2.16,0,0,0-.94-.72l-2-.86a2.82,2.82,0,0,1-1.16-.9,2.44,2.44,0,0,1-.38-1.43,2.3,2.3,0,0,1,.67-1.71,2.27,2.27,0,0,1,1.67-.66,3,3,0,0,1,1.14.25,4,4,0,0,1,1,.57l.46-.82h.23l.07,3h-.2A8.42,8.42,0,0,0,6.71,60a4.09,4.09,0,0,0-.57-.85,2.1,2.1,0,0,0-.77-.56,2.53,2.53,0,0,0-1-.19,1.56,1.56,0,0,0-1.13.41,1.33,1.33,0,0,0-.43,1,1.79,1.79,0,0,0,.26,1,2.26,2.26,0,0,0,.85.7q.39.2,1,.46l.86.39q.41.19.66.34A3.94,3.94,0,0,1,7,63a1.92,1.92,0,0,1,.41.45,2.15,2.15,0,0,1,.24.57,3,3,0,0,1-.29,2.22,2.54,2.54,0,0,1-1,1A2.76,2.76,0,0,1,5,67.55a4.08,4.08,0,0,1-2.38-.84l-.45.81H2Z" transform="translate(-1.88 -8)"/><path d="M8.22,61.74v-.38H9.56v-2.1h.9v2.1H12.3v.38H10.47V65.6a2.18,2.18,0,0,0,.2,1.05.78.78,0,0,0,.74.34q.79,0,1-1.21h.22A2.48,2.48,0,0,1,12.13,67a1.33,1.33,0,0,1-1.09.47q-1.5,0-1.5-1.81V61.74Z" transform="translate(-1.88 -8)"/><path d="M12.92,61.56v-.14l1.85-.16.11.09v4.35a1.55,1.55,0,0,0,.33,1.05,1.06,1.06,0,0,0,.83.38,2,2,0,0,0,1.77-.95V62.39a.75.75,0,0,0-.36-.67,2.14,2.14,0,0,0-.92-.16v-.14l2.13-.16.1.09v5a.67.67,0,0,0,.27.58,1.3,1.3,0,0,0,.7.23v.16l-1.81.12-.1-.09v-.82h0l-.1.1q-.24.24-.38.36a3.57,3.57,0,0,1-.39.28,1.8,1.8,0,0,1-.56.23,3,3,0,0,1-.69.07,1.52,1.52,0,0,1-1.32-.59,2.67,2.67,0,0,1-.43-1.59V62.43a.75.75,0,0,0-.28-.62A1.23,1.23,0,0,0,12.92,61.56Z" transform="translate(-1.88 -8)"/><path d="M20.48,64.27a3.08,3.08,0,0,1,3.08-3.11l.34,0,.32,0,.27.06.24.07.19.07.16.06.09,0V58.74a.9.9,0,0,0-.35-.78,1.48,1.48,0,0,0-.51-.19,5.11,5.11,0,0,0-.67-.1v-.14L26,57.38l.1.1V66.3a.76.76,0,0,0,.35.65,1.84,1.84,0,0,0,.79.16v.16l-2,.12-.1-.09v-.58h-.05a3.21,3.21,0,0,1-.77.57,2.08,2.08,0,0,1-1,.26,2.65,2.65,0,0,1-2.05-.9A3.39,3.39,0,0,1,20.48,64.27Zm1.05.16a3.8,3.8,0,0,0,.13,1,3.08,3.08,0,0,0,.38.87,1.82,1.82,0,0,0,.68.62,2,2,0,0,0,1,.23,1.56,1.56,0,0,0,.8-.2,3.25,3.25,0,0,0,.68-.56V62.53a1.57,1.57,0,0,0-.19-.39,2.31,2.31,0,0,0-.32-.38,1.48,1.48,0,0,0-.5-.3,1.85,1.85,0,0,0-.66-.11,1.65,1.65,0,0,0-1.41.84A4,4,0,0,0,21.53,64.43Z" transform="translate(-1.88 -8)"/><path d="M27.67,61.51v-.11l2-.15.09.09v5.12a.64.64,0,0,0,.37.63,2.49,2.49,0,0,0,.59.15v.13H27.87v-.13a2.2,2.2,0,0,0,.59-.08q.36-.11.36-.62V62.43a.79.79,0,0,0-.37-.67,1.73,1.73,0,0,0-.37-.17A1.45,1.45,0,0,0,27.67,61.51Zm.82-2.92a.73.73,0,0,1,.2-.5.63.63,0,0,1,.48-.22.72.72,0,0,1,.51.19.6.6,0,0,1,.2.45.77.77,0,0,1-.21.54.68.68,0,0,1-1.19-.45Z" transform="translate(-1.88 -8)"/><path d="M31.41,64.39a3.3,3.3,0,0,1,.82-2.33,2.81,2.81,0,0,1,2.17-.9,2.7,2.7,0,0,1,2.11.89,3.2,3.2,0,0,1,.81,2.23,3.8,3.8,0,0,1-.21,1.25,3.25,3.25,0,0,1-.59,1,2.72,2.72,0,0,1-1,.71,3.05,3.05,0,0,1-1.28.26,2.67,2.67,0,0,1-1.08-.23,3,3,0,0,1-.92-.62,2.91,2.91,0,0,1-.64-1A3.53,3.53,0,0,1,31.41,64.39Zm1-.12a5.69,5.69,0,0,0,.19,1.53,2.46,2.46,0,0,0,.64,1.12,1.51,1.51,0,0,0,1.1.44,1.46,1.46,0,0,0,1.06-.43,2.53,2.53,0,0,0,.64-1.11,5.77,5.77,0,0,0,.1-2.61,3.92,3.92,0,0,0-.32-.94,1.7,1.7,0,0,0-.6-.68,1.58,1.58,0,0,0-.89-.25,1.64,1.64,0,0,0-.93.27,1.69,1.69,0,0,0-.6.71,4.09,4.09,0,0,0-.3.93A5.33,5.33,0,0,0,32.45,64.27Z" transform="translate(-1.88 -8)"/><path d="M38.19,65.42h.16a2.8,2.8,0,0,0,.72,1.38,1.71,1.71,0,0,0,1.26.53A1.56,1.56,0,0,0,41.45,67a1.25,1.25,0,0,0,.36-.94.88.88,0,0,0-.36-.76,4.75,4.75,0,0,0-1.26-.53,5.61,5.61,0,0,1-.75-.28,2.9,2.9,0,0,1-.57-.36,1.32,1.32,0,0,1-.4-.52,1.83,1.83,0,0,1-.13-.72,1.61,1.61,0,0,1,.5-1.22,1.88,1.88,0,0,1,1.35-.48,2.45,2.45,0,0,1,1.39.4l.26-.41H42l.1,1.78h-.16a2.15,2.15,0,0,0-.65-1.12,1.64,1.64,0,0,0-1.15-.45,1.24,1.24,0,0,0-.9.3,1,1,0,0,0-.31.79,1.12,1.12,0,0,0,.07.4,1,1,0,0,0,.16.28,1,1,0,0,0,.32.22l.41.18.57.19.1,0a3.51,3.51,0,0,1,1.37.73,1.62,1.62,0,0,1,.46,1.22A1.67,1.67,0,0,1,41.78,67a2.24,2.24,0,0,1-1.5.51A2.84,2.84,0,0,1,38.65,67l-.26.41h-.14Z" transform="translate(-1.88 -8)"/></svg>