<?xml version="1.0" standalone="no"?>
<!DOCTYPE svg PUBLIC "-//W3C//DTD SVG 20010904//EN"
 "http://www.w3.org/TR/2001/REC-SVG-20010904/DTD/svg10.dtd">
<svg version="1.0" xmlns="http://www.w3.org/2000/svg"
 width="100.000000pt" height="100.000000pt" viewBox="0 0 100.000000 100.000000"
 preserveAspectRatio="xMidYMid meet">
<metadata>
Created by potrace 1.11, written by Peter Selinger 2001-2013
</metadata>
<g transform="translate(0.000000,100.000000) scale(0.100000,-0.100000)"
fill="#000000" stroke="none">
<path d="M448 780 l-56 -139 79 -198 c97 -244 102 -283 40 -344 l-39 -39 224
0 223 0 -48 49 c-54 56 -70 90 -252 548 -57 145 -107 263 -110 263 -3 0 -31
-63 -61 -140z"/>
<path d="M213 200 c-17 -39 -58 -89 -94 -116 l-33 -24 113 0 114 0 -27 21
c-33 26 -48 54 -56 104 -6 39 -7 39 -17 15z"/>
</g>
</svg>
