<?xml version="1.0" standalone="no"?>
<!DOCTYPE svg PUBLIC "-//W3C//DTD SVG 20010904//EN"
 "http://www.w3.org/TR/2001/REC-SVG-20010904/DTD/svg10.dtd">
<svg version="1.0" xmlns="http://www.w3.org/2000/svg"
 width="100.000000pt" height="100.000000pt" viewBox="0 0 100.000000 100.000000"
 preserveAspectRatio="xMidYMid meet">
<metadata>
Created by potrace 1.11, written by Peter Selinger 2001-2013
</metadata>
<g transform="translate(0.000000,100.000000) scale(0.100000,-0.100000)"
fill="#000000" stroke="none">
<path d="M452 787 c-29 -74 -52 -140 -52 -148 0 -8 34 -100 77 -204 82 -206
92 -255 59 -311 -10 -17 -30 -38 -45 -47 -24 -16 -13 -16 203 -17 l230 0 -40
34 c-56 48 -83 104 -234 481 -72 182 -135 333 -139 338 -4 4 -31 -53 -59 -126z"/>
<path d="M206 181 c-10 -18 -37 -53 -62 -77 l-43 -44 104 0 105 0 -35 33 c-26
23 -38 44 -43 77 l-8 45 -18 -34z"/>
</g>
</svg>
